<svg xmlns="http://www.w3.org/2000/svg" xmlns:xlink="http://www.w3.org/1999/xlink" version="1.1" x="0px" y="0px" viewBox="0 0 128 160" enable-background="new 0 0 128 128" xml:space="preserve">
  <g fill="#FFB700">
  <path d="M71.461,40.646c-0.549-0.606-1.19-1.215-1.911-1.808c0.041,0.593,0.063,1.197,0.063,1.808s-0.021,1.215-0.063,1.808   C70.271,41.861,70.912,41.252,71.461,40.646z"/>
  <path d="M72.085,39.907c1.405-1.792,1.944-3.5,1.272-4.663c-0.672-1.163-2.421-1.55-4.675-1.23c0.335,1.068,0.584,2.25,0.74,3.502   C70.428,38.276,71.328,39.083,72.085,39.907z"/>
  <path d="M66.807,35.785c0.529,0.305,1.042,0.626,1.534,0.958c-0.154-0.921-0.36-1.78-0.611-2.559   c-0.799,0.172-1.647,0.423-2.521,0.751C65.744,35.196,66.278,35.479,66.807,35.785z"/>
  <path d="M61.193,45.508c-0.529-0.306-1.042-0.626-1.534-0.958c0.154,0.921,0.36,1.78,0.611,2.559   c0.799-0.172,1.647-0.423,2.521-0.751C62.256,46.096,61.722,45.813,61.193,45.508z"/>
  <path d="M65.21,46.357c0.874,0.327,1.722,0.578,2.521,0.751c0.251-0.778,0.457-1.638,0.611-2.559   c-0.493,0.332-1.005,0.653-1.534,0.958C66.278,45.813,65.744,46.096,65.21,46.357z"/>
  <path d="M100.198,34.291c-0.025-1.017-0.498-1.888-1.038-2.686c-4.588-6.774-18.163-12.529-35.173-12.529   c-17.069,0-30.722,5.757-35.211,12.604c-0.511,0.779-0.951,1.629-0.975,2.612l-1.432,58.71c0,0.01,0.002,0.02,0.002,0.03   l-0.002,0.077c-0.057,2.355,1.623,5.088,3.735,6.133l15.537,7.708c2.112,1.045,5.768,1.976,8.124,1.976h20.468   c2.356,0,6.012-0.929,8.124-1.973l15.537-7.732c2.112-1.045,3.793-3.841,3.735-6.196L100.198,34.291z M89.001,66.913l-12.668,2.753   l-6.102,1.326l-1.869-3.7l20.39-10.63L89.001,66.913z M54.969,40.249c-1.571-2.108-1.982-4.056-1.157-5.485   c0.825-1.429,2.717-2.047,5.329-1.741c0.164,0.019,0.33,0.042,0.498,0.069c0.061-0.158,0.124-0.314,0.19-0.465   c1.04-2.414,2.522-3.744,4.172-3.744s3.132,1.33,4.172,3.744c0.065,0.152,0.128,0.307,0.19,0.465   c0.168-0.026,0.334-0.049,0.498-0.069c2.611-0.307,4.503,0.312,5.329,1.741c0.825,1.429,0.414,3.377-1.157,5.485   c-0.099,0.132-0.202,0.265-0.308,0.397c0.107,0.132,0.21,0.264,0.308,0.397c1.571,2.108,1.982,4.056,1.157,5.485   c-0.825,1.429-2.718,2.047-5.329,1.741c-0.164-0.019-0.33-0.042-0.498-0.068c-0.061,0.158-0.124,0.314-0.19,0.465   C67.132,51.08,65.65,52.41,64,52.41s-3.132-1.33-4.172-3.744c-0.065-0.152-0.128-0.307-0.19-0.465   c-0.168,0.026-0.334,0.049-0.498,0.069c-2.611,0.307-4.503-0.312-5.329-1.741c-0.825-1.429-0.414-3.377,1.157-5.485   c0.099-0.132,0.202-0.265,0.308-0.397C55.171,40.514,55.068,40.382,54.969,40.249z M39.248,56.661l20.39,10.63l-1.869,3.7   l-18.77-4.079L39.248,56.661z M95.153,93.882l-15.469,7.698c-1.341,0.663-4.098,1.345-5.45,1.345H53.766   c-1.351,0-4.107-0.683-5.462-1.354l-15.531-7.706c-0.101-0.084-0.345-0.473-0.402-0.704l0.422-17.31l6.932,5.814L64,75   l24.277,6.667l6.933-5.815l0.42,17.234C95.576,93.319,95.334,93.724,95.153,93.882z"/><path d="M60.597,48.018c0.85,2.112,2.06,3.433,3.403,3.433c1.343,0,2.553-1.321,3.403-3.433c-1.092-0.244-2.241-0.619-3.403-1.11   C62.838,47.398,61.69,47.774,60.597,48.018z"/><path d="M73.357,46.049c0.672-1.163,0.132-2.871-1.272-4.663c-0.758,0.824-1.657,1.631-2.662,2.392   c-0.156,1.251-0.405,2.433-0.74,3.502C70.937,47.599,72.686,47.212,73.357,46.049z"/><path d="M56.539,40.646c0.549,0.606,1.19,1.215,1.911,1.808c-0.041-0.593-0.063-1.197-0.063-1.808s0.021-1.215,0.063-1.808   C57.729,39.432,57.088,40.04,56.539,40.646z"/><path d="M67.403,33.275c-0.85-2.112-2.059-3.433-3.403-3.433c-1.343,0-2.553,1.321-3.403,3.433c1.092,0.244,2.241,0.619,3.403,1.11   C65.162,33.894,66.31,33.519,67.403,33.275z"/><path d="M54.643,46.049c0.672,1.163,2.421,1.55,4.675,1.23c-0.335-1.068-0.584-2.25-0.74-3.502   c-1.006-0.761-1.905-1.568-2.662-2.392C54.51,43.177,53.971,44.885,54.643,46.049z"/><path d="M58.577,37.515c0.156-1.251,0.405-2.434,0.74-3.502c-2.254-0.32-4.003,0.067-4.675,1.23   c-0.672,1.163-0.132,2.872,1.272,4.663C56.672,39.083,57.572,38.276,58.577,37.515z"/><path d="M62.791,34.935c-0.874-0.327-1.722-0.578-2.521-0.751c-0.251,0.778-0.457,1.638-0.611,2.559   c0.493-0.332,1.005-0.653,1.534-0.958C61.722,35.479,62.256,35.196,62.791,34.935z"/><path d="M61.673,44.677c0.779,0.45,1.559,0.845,2.327,1.186c0.768-0.34,1.548-0.736,2.327-1.186c0.779-0.45,1.511-0.928,2.19-1.423   c0.089-0.835,0.137-1.709,0.137-2.608c0-0.899-0.048-1.773-0.137-2.608c-0.679-0.495-1.411-0.973-2.19-1.423   c-0.779-0.45-1.559-0.845-2.327-1.186c-0.768,0.34-1.548,0.736-2.327,1.186c-0.779,0.45-1.511,0.928-2.19,1.423   c-0.089,0.835-0.137,1.709-0.137,2.608c0,0.899,0.048,1.773,0.137,2.608C60.161,43.749,60.894,44.227,61.673,44.677z M64,38.68   c1.086,0,1.966,0.88,1.966,1.966c0,1.086-0.88,1.966-1.966,1.966s-1.966-0.88-1.966-1.966C62.034,39.56,62.914,38.68,64,38.68z"/>
  </g>
</svg>